HIERARCHY
ROOT ROOT
{
	OFFSET 0.000000 56.020000 -5.659234
	CHANNELS 6 Xposition Yposition Zposition Xrotation Yrotation Zrotation 
	JOINT C_spine0001_bind_JNT
	{
		OFFSET 0.000000 1.618999 0.000000
		CHANNELS 3 Xrotation Yrotation Zrotation
		JOINT C_spine0002_bind_JNT
		{
			OFFSET 0.000000 4.942001 0.000001
			CHANNELS 3 Xrotation Yrotation Zrotation
			JOINT C_spine0003_bind_JNT
			{
				OFFSET 0.000000 4.942001 -0.000000
				CHANNELS 3 Xrotation Yrotation Zrotation
				JOINT C_neck0001_bind_JNT
				{
					OFFSET 0.000000 17.026009 -0.000000
					CHANNELS 3 Xrotation Yrotation Zrotation
					JOINT C_neck0002_bind_JNT
					{
						OFFSET 0.000000 3.249985 0.000000
						CHANNELS 3 Xrotation Yrotation Zrotation
						JOINT C_head_bind_JNT
						{
							OFFSET 0.000000 5.278008 0.000000
							CHANNELS 3 Xrotation Yrotation Zrotation
							End Site
							{
								OFFSET 0.000000 0.000000 0.000000
							}
						}
					}
				}
				JOINT L_clavicle_bind_JNT
				{
					OFFSET 4.590000 12.067001 0.834000
					CHANNELS 3 Xrotation Yrotation Zrotation
					JOINT L_armUpper0001_bind_JNT
					{
						OFFSET 7.812635 0.512001 -3.452945
						CHANNELS 3 Xrotation Yrotation Zrotation
						JOINT L_armLower0001_bind_JNT
						{
							OFFSET 15.265892 -6.552116 -0.058157
							CHANNELS 3 Xrotation Yrotation Zrotation
							JOINT L_hand0001_bind_JNT
							{
								OFFSET 14.747667 -6.369995 5.049225
								CHANNELS 3 Xrotation Yrotation Zrotation
								End Site
								{
									OFFSET 0.000000 0.000000 0.000000
								}
							}
						}
					}
				}
				JOINT R_clavicle_bind_JNT
				{
					OFFSET -4.590000 12.067001 0.834000
					CHANNELS 3 Xrotation Yrotation Zrotation
					JOINT R_armUpper0001_bind_JNT
					{
						OFFSET -7.812635 0.512001 -3.452945
						CHANNELS 3 Xrotation Yrotation Zrotation
						JOINT R_armLower0001_bind_JNT
						{
							OFFSET -15.265890 -6.552124 -0.058160
							CHANNELS 3 Xrotation Yrotation Zrotation
							JOINT R_hand0001_bind_JNT
							{
								OFFSET -14.746784 -6.369629 5.048937
								CHANNELS 3 Xrotation Yrotation Zrotation
								End Site
								{
									OFFSET 0.000000 0.000000 0.000000
								}
							}
						}
					}
				}
			}
		}
	}
	JOINT C_pelvis0001_bind_JNT
	{
		OFFSET -0.000000 0.000000 0.000000
		CHANNELS 3 Xrotation Yrotation Zrotation
		JOINT L_legUpper0001_bind_JNT
		{
			OFFSET 6.599999 -6.027000 0.539000
			CHANNELS 3 Xrotation Yrotation Zrotation
			JOINT L_legLower0001_bind_JNT
			{
				OFFSET -0.140713 -19.187443 0.040261
				CHANNELS 3 Xrotation Yrotation Zrotation
				JOINT L_foot0001_bind_JNT
				{
					OFFSET -0.132215 -18.028637 -1.138370
					CHANNELS 3 Xrotation Yrotation Zrotation
					JOINT L_foot0002_bind_JNT
					{
						OFFSET 0.007014 -4.693133 9.886524
						CHANNELS 3 Xrotation Yrotation Zrotation
						End Site
						{
							OFFSET 0.000000 0.000000 0.000000
						}
					}
				}
			}
		}
		JOINT R_legUpper0001_bind_JNT
		{
			OFFSET -6.599999 -6.027000 0.539000
			CHANNELS 3 Xrotation Yrotation Zrotation
			JOINT R_legLower0001_bind_JNT
			{
				OFFSET 0.140710 -19.187164 0.040550
				CHANNELS 3 Xrotation Yrotation Zrotation
				JOINT R_foot0001_bind_JNT
				{
					OFFSET 0.132215 -18.028633 -1.138362
					CHANNELS 3 Xrotation Yrotation Zrotation
					JOINT R_foot0002_bind_JNT
					{
						OFFSET -0.007014 -4.693128 9.886505
						CHANNELS 3 Xrotation Yrotation Zrotation
						End Site
						{
							OFFSET 0.000000 0.000000 0.000000
						}
					}
				}
			}
		}
	}
}
MOTION
Frames: 6
Frame Time: 0.033333
-25.935621 48.917011 93.909729 0.022759 -25.546795 -0.021671 6.202335 -0.818415 0.614503 -2.141627 0.710701 0.267182 6.434364 1.096784 0.868500 -1.320309 -3.457247 0.702081 -0.545284 0.104958 0.276031 -36.222870 -5.768506 -2.401758 5.277446 -3.299570 5.752422 -12.392251 -0.882307 -66.831779 -7.576187 20.956045 -2.197500 0.883913 -16.394575 -19.106848 10.285754 0.074487 -6.765109 -21.272970 -0.157808 68.326187 5.185031 -20.154984 -14.523097 13.580580 27.349436 0.448316 2.845558 -2.314152 0.726259 -5.159032 18.918995 -1.135818 11.753884 -0.626079 -0.130437 -7.930264 -8.754942 1.028646 -1.806265 -1.629783 0.229934 -15.968064 -13.512183 -6.942349 36.969276 -0.873729 0.194736 -1.529149 0.150888 4.116227 -21.949862 0.298754 -1.311387
-25.974491 48.779850 94.366776 0.025522 -25.935678 -0.003198 6.125077 -1.319724 0.062035 -2.248024 0.710338 -0.065760 6.439453 1.387360 0.564091 -1.253456 -3.354484 0.715912 -0.610030 -0.001100 0.313902 -36.272083 -6.314602 -2.732837 5.428266 -3.069172 6.172490 -14.411197 -3.140354 -66.717949 -7.991988 19.401016 -2.976750 1.002950 -16.294106 -19.379692 10.431893 0.738555 -7.311671 -19.586092 -2.378473 69.022781 6.058111 -21.901703 -13.859128 13.905210 26.988815 1.081292 2.759405 -2.572068 0.791900 -4.062354 18.650141 -1.584094 11.071981 -0.157237 -0.190134 -8.479724 -8.411119 0.864301 -1.594985 -1.672763 0.461201 -19.430368 -14.046103 -8.417655 41.921124 0.162510 -0.956922 1.671252 1.110471 3.425643 -24.975143 -0.163631 -0.265230
-26.037271 48.697021 94.770439 0.024872 -26.315321 -0.021200 5.952469 -1.598329 -0.530542 -2.045361 0.501787 -0.172868 6.404166 1.543830 0.420180 -1.371741 -3.466745 0.511616 -0.506097 0.104222 0.339745 -36.528870 -6.431822 -2.715785 5.422226 -2.689752 6.406537 -16.356823 -5.682143 -66.897827 -8.615458 17.981731 -3.441309 1.186470 -16.060453 -19.302589 10.369474 1.419314 -8.226254 -17.749645 -4.371547 69.675568 6.941442 -23.157406 -13.306383 13.534028 26.544270 2.132057 2.367501 -2.655886 0.696746 -2.721031 18.419794 -1.727024 10.434201 0.146531 -0.446695 -9.059231 -8.148123 0.798266 -1.321015 -1.350328 0.437099 -21.204681 -14.599938 -8.925900 44.943409 0.313856 -1.729561 3.119536 2.093478 2.457146 -26.218306 -0.310982 0.541038
-26.137579 48.708084 95.172142 0.022135 -26.442810 -0.015638 5.942992 -2.235987 -1.024343 -2.191999 0.495832 -0.396670 6.406219 1.758698 0.222695 -1.276194 -3.373623 0.486827 -0.631796 -0.135938 0.401251 -36.301765 -6.327491 -2.678172 5.542337 -2.546423 6.557136 -18.556055 -7.686749 -66.812157 -8.639679 16.721476 -4.068201 1.193845 -15.603903 -19.380739 10.091543 2.007442 -8.788395 -15.430228 -6.413589 70.388489 7.752696 -23.885042 -13.166041 13.374205 26.145878 3.005255 2.261155 -2.902273 0.226049 -1.452744 18.629620 -1.466819 9.644412 0.236542 -0.669694 -9.674244 -8.053635 0.695087 -1.180702 -1.479624 0.553367 -22.866621 -14.821730 -9.011781 46.015976 0.713956 -2.482888 3.012577 2.651535 2.127804 -24.826647 -0.189354 1.014516
-26.329138 48.759460 95.540993 0.024456 -26.141113 -0.029989 5.774397 -3.060222 -1.326146 -2.208758 0.265565 -0.416942 6.473587 1.843562 0.127207 -1.229761 -3.345579 0.455193 -0.589319 0.174743 0.344993 -36.403854 -6.217700 -2.662515 5.221143 -2.136725 6.108712 -19.797976 -9.380925 -66.662865 -9.023730 15.328405 -4.434722 1.245015 -15.334756 -19.487947 9.839158 2.744174 -9.095648 -13.727396 -8.014272 70.123772 8.728320 -24.307720 -12.115762 13.352701 25.792337 3.352303 1.989764 -3.372025 -0.223525 -0.401847 18.743444 -1.132108 8.783952 0.301545 -0.582694 -9.694926 -8.097419 0.419325 -1.121821 -1.533661 0.488842 -23.527182 -15.134798 -8.719553 44.148308 1.223474 -2.688009 2.038586 2.668831 1.925508 -21.020679 -0.222103 1.270512
-26.672476 48.938339 96.047272 0.031581 -26.190922 -0.015849 5.646263 -3.430699 -1.479333 -2.369619 0.191240 -0.400402 6.416627 1.912157 -0.003234 -1.179136 -3.148253 0.441308 -0.606820 0.086972 0.376224 -36.361271 -5.905543 -2.588270 5.291427 -1.886825 5.704000 -21.038427 -10.771755 -66.515434 -9.476557 14.329193 -5.039344 1.135225 -15.541562 -19.563429 9.708183 3.360204 -9.080852 -11.959123 -9.613559 69.783714 9.502283 -24.587303 -11.558522 13.764457 25.667953 3.715217 2.007682 -3.539489 -0.795102 0.199528 19.165421 -0.397706 7.758106 0.039199 -0.493841 -9.475834 -7.820680 0.185630 -1.101803 -1.496714 0.373225 -23.512779 -14.864721 -8.086909 41.440540 1.439538 -2.052280 0.565064 2.080910 1.423094 -16.557905 0.003490 1.489212
